<?xml version="1.0" encoding="UTF-8"?>
<svg width="64px" height="42px" viewBox="0 0 64 42" version="1.1" xmlns="http://www.w3.org/2000/svg" xmlns:xlink="http://www.w3.org/1999/xlink">
    <!-- Generator: Sketch 59 (86127) - https://sketch.com -->
    <title>编组</title>
    <desc>Created with Sketch.</desc>
    <defs>
        <linearGradient x1="50%" y1="0%" x2="50%" y2="100%" id="linearGradient-1">
            <stop stop-color="#21C5FF" offset="0%"></stop>
            <stop stop-color="#1890FF" offset="100%"></stop>
        </linearGradient>
    </defs>
    <g id="Page-1" stroke="none" stroke-width="1" fill="none" fill-rule="evenodd">
        <g id="r" transform="translate(-221.000000, -245.000000)" fill="url(#linearGradient-1)">
            <g id="编组" transform="translate(221.000000, 245.000000)">
                <path d="M62.4831,0.7242 C63.2431,1.3262 63.6061,2.3032 63.6061,3.2722 L63.6061,27.3072 C63.6061,27.6902 63.3881,28.0382 63.0451,28.2062 L37.2481,41.8042 C35.9201,42.4532 34.3711,41.4862 34.3711,40.0072 L34.3711,12.9112 C34.3711,12.8612 34.3991,12.8152 34.4431,12.7932 L59.2651,0.3822 C60.3101,-0.1388 61.5461,-0.0188 62.4831,0.7242 Z M5.3157,0.5503 L30.2797,12.6573 C30.7197,12.8713 30.9997,13.3183 30.9997,13.8093 L30.9997,15.9843 C30.9997,16.9233 30.0207,17.5433 29.1717,17.1403 L5.8277,6.0633 C4.9797,5.6603 3.9997,6.2793 3.9997,7.2193 L3.9997,25.7103 C3.9997,26.2133 4.2947,26.6703 4.7537,26.8773 L24.8977,35.9523 C25.7437,36.3343 26.7027,35.7153 26.7027,34.7863 L26.7027,27.5193 C26.7027,27.0293 26.4227,26.5823 25.9827,26.3683 L17.4847,22.2423 C17.1747,22.0923 16.9387,21.8233 16.8297,21.4963 L16.0047,19.0213 C15.6407,17.9283 16.7927,16.9473 17.8127,17.4833 L30.0177,23.8873 C30.4387,24.1083 30.7027,24.5443 30.7027,25.0203 L30.7027,40.1893 C30.7027,41.4863 29.3637,42.3523 28.1807,41.8193 L0.7537,29.4623 C0.2947,29.2553 -0.0003,28.7983 -0.0003,28.2953 L-0.0003,3.3063 C-0.0003,2.9723 0.0657,2.6353 0.2297,2.3453 C1.1297,0.7513 1.3947,0.2403 2.9997,0.0073 C3.4587,-0.0587 4.8987,0.3483 5.3157,0.5503 Z M59.4141,4.7792 L38.4431,15.2642 C38.3991,15.2872 38.3711,15.3332 38.3711,15.3832 L38.3711,36.5922 C38.3711,36.6902 38.4731,36.7542 38.5611,36.7122 L59.5311,25.4702 C59.5771,25.4482 59.6051,25.4022 59.6051,25.3512 L59.6051,4.8982 C59.6051,4.7992 59.5021,4.7352 59.4141,4.7792 Z" id="形状结合"></path>
            </g>
        </g>
    </g>
</svg>